<?xml version="1.0" standalone="no"?>
<!DOCTYPE svg PUBLIC "-//W3C//DTD SVG 20010904//EN"
 "http://www.w3.org/TR/2001/REC-SVG-20010904/DTD/svg10.dtd">
<svg version="1.0" xmlns="http://www.w3.org/2000/svg"
 width="1500.000000pt" height="1500.000000pt" viewBox="0 0 1500.000000 1500.000000"
 preserveAspectRatio="xMidYMid meet">
<metadata>
Created by potrace 1.14, written by Peter Selinger 2001-2017
</metadata>
<g transform="translate(0.000000,1500.000000) scale(0.100000,-0.100000)"
fill="#000000" stroke="none">
<path d="M10220 10935 c0 -3 -86 -333 -141 -540 -16 -60 -32 -121 -35 -135 -3
-14 -12 -48 -20 -76 -8 -28 -16 -60 -18 -70 -2 -11 -18 -73 -36 -139 -46 -174
-101 -388 -106 -405 -2 -8 -22 -85 -44 -170 -23 -85 -58 -222 -80 -305 -83
-320 -103 -396 -151 -580 -28 -104 -52 -196 -54 -205 -4 -18 -67 -262 -96
-370 -11 -41 -38 -142 -59 -225 -22 -82 -62 -238 -90 -345 -106 -406 -122
-465 -125 -480 -5 -21 -151 -579 -175 -670 -11 -41 -35 -133 -54 -205 -19 -71
-55 -209 -80 -306 -26 -97 -48 -185 -51 -195 -2 -11 -11 -46 -20 -79 -20 -76
-96 -367 -99 -380 -2 -5 -8 -28 -14 -50 -6 -22 -58 -224 -117 -450 -58 -225
-108 -417 -111 -426 -4 -15 19 -16 225 -16 l229 -1 12 47 c7 25 13 53 15 61 2
8 22 85 44 170 23 85 70 270 106 410 36 140 70 269 76 286 5 17 11 40 13 50 2
10 32 125 66 254 34 129 63 242 65 250 3 16 161 624 220 845 19 72 62 238 95
370 34 132 71 272 81 310 11 39 22 81 25 95 3 14 16 65 29 115 13 49 37 142
54 205 16 63 42 160 56 215 15 55 28 107 30 115 2 8 8 35 15 60 7 25 14 52 15
60 3 13 159 609 282 1080 25 96 72 276 104 400 85 329 176 681 205 790 22 83
51 193 110 425 9 33 17 67 19 75 1 8 9 35 16 60 7 25 14 52 15 61 3 14 -22 16
-221 16 -124 1 -225 0 -225 -2z"/>
<path d="M6019 10656 c-2 -2 -33 -6 -69 -9 -89 -7 -256 -42 -349 -74 -135 -46
-295 -126 -372 -187 -15 -12 -39 -30 -55 -41 -63 -43 -262 -254 -320 -340
-127 -187 -235 -431 -279 -631 -23 -106 -35 -167 -41 -209 -3 -27 -8 -59 -10
-70 -8 -43 -18 -246 -17 -360 1 -339 53 -575 181 -828 170 -336 472 -570 862
-668 193 -48 255 -54 505 -53 153 1 210 5 292 23 284 59 516 186 725 394 l99
98 -5 -103 c-8 -131 -16 -251 -21 -308 -2 -25 -7 -74 -10 -110 -4 -36 -8 -76
-10 -90 -2 -14 -7 -50 -10 -80 -31 -272 -124 -674 -191 -825 -7 -16 -25 -59
-39 -95 -126 -307 -354 -541 -615 -633 -91 -31 -137 -43 -210 -54 -84 -12
-328 -8 -395 6 -289 62 -502 232 -650 519 -21 39 -41 72 -45 72 -3 0 -28 -14
-54 -31 -176 -117 -221 -354 -111 -584 97 -201 332 -342 655 -391 19 -3 46 -7
60 -10 119 -20 479 -23 616 -5 309 42 539 126 759 278 386 267 659 662 847
1228 62 186 135 490 153 639 3 22 7 48 10 56 2 8 7 44 10 80 4 36 9 73 10 82
2 9 6 45 10 80 3 35 8 77 10 95 26 210 26 847 0 1083 -15 144 -16 147 -30 250
-2 19 -12 73 -20 120 -9 47 -19 99 -22 115 -3 17 -14 64 -24 105 -11 41 -22
83 -24 93 -18 79 -99 288 -160 412 -180 369 -383 594 -689 763 -150 84 -362
157 -511 176 -22 3 -51 8 -65 12 -27 6 -375 15 -381 10z m361 -453 c225 -69
394 -225 527 -488 106 -208 169 -420 218 -725 4 -25 8 -59 20 -155 11 -92 25
-297 30 -450 l4 -120 -36 -70 c-94 -185 -286 -375 -467 -459 -263 -123 -640
-130 -890 -17 -331 150 -480 493 -480 1106 0 148 10 372 19 397 2 7 6 36 9 63
9 82 43 228 76 327 62 184 162 345 279 448 68 61 213 135 301 154 94 20 305
14 390 -11z"/>
<path d="M3410 9639 c-102 -55 -232 -125 -290 -156 -58 -31 -123 -66 -145 -78
-22 -13 -76 -42 -120 -65 -44 -23 -132 -70 -195 -105 -153 -83 -378 -204 -465
-250 -85 -45 -204 -110 -265 -143 -25 -14 -83 -45 -130 -70 -223 -119 -416
-223 -430 -232 -8 -6 -22 -13 -30 -17 -27 -12 -1014 -544 -1036 -558 -20 -13
-22 -22 -21 -148 l1 -134 66 -35 c84 -45 619 -333 685 -368 28 -15 86 -46 130
-70 44 -23 112 -59 150 -80 39 -21 104 -56 145 -78 41 -22 104 -55 140 -74
118 -64 334 -180 415 -223 44 -24 197 -106 340 -182 143 -77 301 -162 350
-188 84 -45 120 -64 278 -149 158 -85 339 -182 417 -224 47 -24 108 -58 136
-73 28 -16 56 -29 61 -29 6 0 9 99 9 256 l-1 256 -110 59 c-60 33 -155 84
-210 113 -55 30 -120 65 -145 78 -25 14 -85 47 -135 73 -138 73 -243 129 -455
243 -107 57 -226 121 -265 142 -38 21 -167 89 -285 152 -118 64 -249 134 -290
156 -41 21 -100 53 -130 69 -30 17 -91 49 -135 73 -89 48 -174 93 -267 144
-35 18 -87 46 -117 60 -49 25 -52 29 -35 40 22 15 463 256 469 256 2 0 30 15
62 34 32 18 92 51 133 73 162 86 237 126 275 148 22 12 81 44 130 70 50 26 95
51 100 55 6 4 58 33 117 64 59 31 123 65 143 76 19 11 65 36 102 56 37 20 91
49 118 64 28 15 86 47 130 71 44 23 121 65 170 91 50 27 98 52 108 55 9 3 17
9 17 14 0 5 4 9 8 9 5 0 80 39 168 86 87 47 193 104 234 126 41 23 80 45 86
49 11 9 16 519 5 519 -3 0 -89 -46 -191 -101z"/>
<path d="M11174 9483 l1 -258 115 -63 c63 -35 153 -84 200 -109 88 -47 169
-91 255 -138 28 -15 77 -42 110 -60 336 -182 559 -302 600 -325 28 -15 86 -46
130 -70 44 -23 94 -50 110 -60 17 -9 71 -39 120 -65 97 -52 196 -105 260 -140
22 -12 96 -52 165 -90 69 -37 148 -80 175 -95 28 -15 119 -64 203 -110 135
-72 151 -84 135 -94 -10 -7 -63 -37 -118 -66 -55 -29 -158 -84 -230 -123 -71
-38 -168 -90 -215 -115 -47 -24 -114 -61 -150 -80 -36 -19 -96 -52 -135 -73
-38 -20 -189 -101 -335 -179 -146 -78 -303 -163 -350 -187 -109 -58 -224 -120
-275 -148 -22 -12 -85 -46 -140 -75 -55 -29 -125 -66 -155 -83 -61 -33 -132
-71 -295 -158 -60 -32 -126 -67 -145 -77 l-35 -19 -1 -257 c0 -141 3 -256 8
-256 5 0 59 28 121 61 62 34 121 65 132 70 11 5 43 22 70 37 62 34 172 94 375
202 85 45 184 98 220 118 36 19 157 85 270 145 193 104 265 143 392 210 164
88 255 136 358 192 63 34 160 86 215 115 55 29 114 60 130 70 17 9 80 43 140
75 61 32 153 82 205 110 52 28 102 55 110 58 8 4 38 20 65 35 28 15 154 83
281 151 l230 124 1 133 c1 90 -2 136 -10 142 -10 8 -160 89 -487 265 -41 22
-97 52 -125 67 -27 15 -115 62 -195 105 -80 43 -165 89 -190 103 -25 13 -83
45 -130 70 -47 25 -137 73 -200 107 -63 34 -151 82 -195 105 -44 23 -102 55
-130 70 -146 80 -171 93 -380 205 -38 21 -126 68 -195 105 -69 37 -154 83
-190 102 -36 20 -96 52 -135 73 -38 21 -104 56 -145 78 -41 22 -151 81 -245
132 -254 138 -363 195 -368 195 -2 0 -4 -116 -3 -257z"/>
</g>
</svg>
